<?xml version="1.0" encoding="UTF-8" standalone="no"?>
<!-- Created with Inkscape (http://www.inkscape.org/) -->

<svg
   xmlns:dc="http://purl.org/dc/elements/1.1/"
   xmlns:cc="http://creativecommons.org/ns#"
   xmlns:rdf="http://www.w3.org/1999/02/22-rdf-syntax-ns#"
   xmlns:svg="http://www.w3.org/2000/svg"
   xmlns="http://www.w3.org/2000/svg"
   xmlns:sodipodi="http://sodipodi.sourceforge.net/DTD/sodipodi-0.dtd"
   xmlns:inkscape="http://www.inkscape.org/namespaces/inkscape"
   width="128px"
   height="128px"
   viewBox="0 0 128 128"
   version="1.1"
   id="SVGRoot"
   inkscape:version="0.92.2 (5c3e80d, 2017-08-06)"
   sodipodi:docname="org.jensge.Sellerie.svg">
  <sodipodi:namedview
     id="base"
     pagecolor="#ffffff"
     bordercolor="#666666"
     borderopacity="1.0"
     inkscape:pageopacity="0.0"
     inkscape:pageshadow="2"
     inkscape:zoom="2"
     inkscape:cx="49.25"
     inkscape:cy="64"
     inkscape:document-units="px"
     inkscape:current-layer="layer1"
     showgrid="false"
     inkscape:window-width="1280"
     inkscape:window-height="736"
     inkscape:window-x="0"
     inkscape:window-y="27"
     inkscape:window-maximized="1"
     inkscape:grid-bbox="true" />
  <defs
     id="defs4565" />
  <metadata
     id="metadata4568">
    <rdf:RDF>
      <cc:Work
         rdf:about="">
        <dc:format>image/svg+xml</dc:format>
        <dc:type
           rdf:resource="http://purl.org/dc/dcmitype/StillImage" />
        <dc:title></dc:title>
      </cc:Work>
    </rdf:RDF>
  </metadata>
  <g
     id="layer1"
     inkscape:groupmode="layer"
     inkscape:label="Layer 1">
    <g
       id="g5171"
       transform="matrix(0.86956688,0,0,0.86956688,0.08683867,1.8259703)">
      <path
         style="fill:#51bd35;fill-opacity:1;fill-rule:nonzero;stroke:#51bd35;stroke-width:10.90268517;stroke-linecap:round;stroke-linejoin:round;stroke-miterlimit:4;stroke-opacity:1"
         d="m 140.88291,71.5 c 0,37.21362 -30.16929,67.38291 -67.38292,67.38291 -37.2167,0 -67.38291,-30.16929 -67.38291,-67.38291 0,-37.21363 30.16621,-67.382915 67.38291,-67.382915 37.21363,0 67.38292,30.169285 67.38292,67.382915 z m 0,0"
         id="path31"
         inkscape:connector-curvature="0" />
      <path
         style="fill:#ffffff;fill-opacity:1;fill-rule:nonzero;stroke:#ffffff;stroke-width:0.17635442;stroke-linecap:round;stroke-linejoin:round;stroke-miterlimit:4;stroke-opacity:1"
         d="m 100.62734,32.69592 -0.1328,-1.14266 -0.37059,-0.7381 -0.57132,-0.77516 -0.53736,-0.40147 -0.60531,-0.33662 -1.04074,-0.20074 -2.52002,-0.034 -1.5812,-0.16985 -0.46942,-0.20074 0.57133,0.57133 0.37059,0.6053 0.43545,0.87398 0.13588,0.90795 -0.0371,0.93883 -0.30266,0.67325 -0.0988,0.53735 0.20074,0.63928 0.7381,0.46941 0.97589,0.43854 1.17663,0.2347 2.08149,-0.30265 0.87398,-0.57133 0.47251,-0.57132 0.16676,-0.63928 z m 0,0"
         id="path33"
         inkscape:connector-curvature="0" />
      <path
         style="fill:#ffffff;fill-opacity:1;fill-rule:nonzero;stroke:#ffffff;stroke-width:0.17635442;stroke-linecap:round;stroke-linejoin:round;stroke-miterlimit:4;stroke-opacity:1"
         d="m 59.89927,32.89665 1.04383,-0.40147 0.43545,-0.57133 0.26867,-0.53736 0.0679,-0.70721 -0.13588,-0.7381 -0.30265,-0.90795 -0.40148,-1.44531 -0.20074,-0.63927 -0.0371,-1.04075 0.26869,-0.73809 0.53735,-0.33662 0.70721,-0.30265 0.77207,-0.16986 0.87398,0.0679 0.80604,0.33663 0.77206,0.53735 0.77516,0.40457 1.00678,0.40147 1.04074,-0.0679 0.74119,-0.29956 0.77206,-0.6053 0.9759,-1.17663 0.63618,-0.84001 0.77516,-0.74119 0.77206,-0.46941 1.04074,-0.16677 0.9759,0.13279 1.81282,0.67325 1.0778,0.30265 1.00678,0.13279 h 0.70721 l 1.07471,-0.40147 1.17664,-0.40457 1.54413,-0.30265 1.07471,0.068 1.1087,0.43545 1.14265,0.60529 0.84001,0.87398 1.04383,1.37737 0.77208,1.2106 0.67324,1.3434 -0.67324,-0.1328 -2.05061,-0.0679 -1.14267,0.0679 -1.04074,0.1328 -1.14266,0.23471 -1.37736,0.50647 -1.07473,0.43545 -0.43853,0.50339 -0.23471,0.74118 v 0.63618 l 0.20075,0.74119 0.47249,1.47928 -1.74796,-0.70721 -1.47927,-0.67325 -1.74796,-0.84001 -1.88076,-0.73809 -1.2106,-0.40456 -1.68001,-0.26868 -1.21061,0.0679 -1.07471,0.57133 -0.84002,0.84001 -0.33662,1.17663 -0.26867,1.91473 -0.33663,1.54722 -0.57132,1.37737 -0.7381,0.30265 -1.00678,-0.13589 -1.2106,-0.57133 -1.64605,-1.14266 -1.74796,-1.64604 z m 0,0"
         id="path35"
         inkscape:connector-curvature="0" />
      <path
         style="fill:#ffffff;fill-opacity:1;fill-rule:nonzero;stroke:#ffffff;stroke-width:0.17635442;stroke-linecap:round;stroke-linejoin:round;stroke-miterlimit:4;stroke-opacity:1"
         d="M 53.81538,40.87674 V 38.8076 l 0.25941,-1.63679 1.32178,-2.01355 0.60839,-1.21677 c 0.10501,-0.25324 0.13898,-0.63001 0.10501,-1.11487 -0.31501,-0.53427 -0.72884,-0.6578 -1.13031,-0.83383 l -1.7912,-0.55589 c -0.70104,0.0494 -1.47928,-0.0649 -1.96723,0.24397 -1.10559,0.49104 -0.92648,0.72266 -1.17971,1.04384 l -0.85237,2.06914 -0.60838,0.9728 -0.85236,0.48795 -1.11487,0.29338 c -0.0679,0.19457 -0.24089,0.36442 0.0371,0.46942 l 1.09633,1.21987 c 0.54354,0.58986 0.99134,1.22913 1.07472,2.05061 l 0.0216,1.09633 c -0.0865,0.70104 -0.44162,1.2384 -0.75044,1.80664 l -0.6084,0.60839 1.46076,-0.36442 1.74178,-0.36441 1.54722,-0.60839 1.09325,-0.60839 z m 0,0"
         id="path37"
         inkscape:connector-curvature="0" />
      <path
         style="fill:#ffffff;fill-opacity:1;fill-rule:nonzero;stroke:#ffffff;stroke-width:0.17635442;stroke-linecap:round;stroke-linejoin:round;stroke-miterlimit:4;stroke-opacity:1"
         d="m 58.09572,33.93431 -0.98207,1.69237 -0.62383,1.8159 -0.22853,1.59046 -0.22544,1.36193 -0.16986,1.19207 -0.51265,0.73809 -0.67942,0.79678 -0.74119,0.39838 -1.36192,0.90795 -1.30634,0.33971 -1.87458,0.51266 -1.98576,0.3953 -1.36192,0.34279 -0.96663,0.33971 1.87458,0.79369 1.8159,0.62691 2.04444,0.62384 2.95238,0.96354 2.61267,0.51264 1.02222,0.56825 1.4206,2.1587 0.79369,0.62383 0.85236,0.39838 h 1.36193 l 0.73809,0.3953 0.68251,0.51266 0.33971,0.96354 -0.33971,1.08089 v 0.85236 l 0.16985,0.45398 0.62383,0.39529 0.28412,4.82697 0.0587,12.38086 -0.62383,4.48416 -0.68251,8.74598 -0.51265,5.22535 -0.28412,5.62065 v 3.35077 l 0.22853,4.88254 0.6825,3.01107 1.07781,2.21429 0.96663,1.19207 0.3953,0.16985 1.13648,2.61268 1.30634,1.70472 1.59045,1.19207 1.24767,0.6825 0.0586,0.16987 1.59046,0.22543 2.26988,0.28413 2.21429,-0.11426 0.90795,-0.62383 1.13648,-0.68252 1.02221,-1.41751 0.96663,-1.19208 0.56825,-0.96662 c 0.79368,-0.51883 1.31559,-0.54971 2.52929,-1.82208 l 1.27546,-2.20811 0.90795,-2.32855 0.62383,-3.01107 0.22853,-2.95238 -0.22853,-4.99681 -0.33971,-4.7127 -0.28412,-3.80475 -0.16986,-3.69048 -0.11426,-5.16975 0.22544,-9.59526 -0.33971,-8.17773 v -4.6571 l -0.11426,-3.57622 0.37986,-0.0772 0.42,0.38295 0.76898,0.24706 0.52501,0.105 0.21,-0.21 0.94501,-1.22295 1.15192,-1.22605 0.63001,-0.80295 0.13897,-0.48794 v -0.49104 l 0.105,-0.34897 0.59295,-1.01295 1.26001,-1.08399 1.32796,-0.91103 1.53795,-0.76898 1.81899,-0.73192 1.5009,-0.87398 1.12104,-0.76898 0.80295,-0.63001 0.45398,-0.48795 0.38603,-0.49103 h -0.63001 l -1.22295,-0.21 -1.01604,-0.31501 -0.62692,-0.41691 -0.28103,-0.45706 -0.071,-0.76898 0.525,-1.11796 1.11795,-1.53795 0.94502,-1.15193 0.38603,-0.63 0.27795,-0.52501 0.13896,-0.34897 -0.55897,0.27794 -0.90795,0.28103 -1.11795,0.28103 -1.08398,0.0679 -0.90795,0.071 -1.26002,-0.071 -0.87398,-0.21 c 0,0 -0.63,-0.55898 -0.63,-0.27795 0,0.27795 -0.97899,-0.59603 -0.97899,-0.59603 l -0.69795,-0.73192 -0.315,-0.94501 v -0.90795 l 0.28103,-1.47002 0.21001,-0.90795 -0.28103,-0.63001 -0.59295,-0.55897 -1.39898,-0.45398 -1.32796,-0.17603 h -1.67693 l -1.36501,0.071 -1.11796,0.21 -0.94501,0.42 -0.55897,0.90795 -0.034,1.39899 0.17294,1.15192 -0.24397,0.94501 -0.66398,0.24398 -1.11795,-0.105 -1.67693,-0.52501 -1.64296,-0.55898 -1.95796,-0.76898 -1.78502,-0.66397 -1.22295,-0.27795 -0.87399,-0.105 -0.69794,0.034 -1.05001,0.28104 -0.66398,0.73191 -0.21,1.18899 -0.27795,1.50398 -0.21,1.11796 -0.38603,0.90795 -0.55898,0.76898 -0.76898,0.59603 -0.87398,0.21 h -1.18898 l -1.15193,-0.315 -1.43295,-0.84001 -1.57502,-1.04692 -1.15193,-1.05001 -0.84,-0.76898 -0.87399,-0.69792 z m 0,0"
         id="path39"
         inkscape:connector-curvature="0" />
      <path
         style="fill:#51bd35;fill-opacity:1;fill-rule:nonzero;stroke:#51bd35;stroke-width:0.17635442;stroke-linecap:round;stroke-linejoin:round;stroke-miterlimit:4;stroke-opacity:1"
         d="m 81.50788,48.52329 -0.27794,-3.45886 -0.13897,-2.86591 -0.14207,-0.73501 -0.38295,0.97898 -0.31499,1.08398 -0.24398,1.04692 -0.17603,1.15502 -0.034,0.945 0.10191,1.32796 0.105,2.51694 -0.0679,2.47988 -0.105,3.67195 0.27795,-0.0371 -0.034,1.74796 0.13898,2.659 0.10499,1.6059 0.21001,2.93695 0.525,8.63479 -0.13897,3.73989 -0.105,2.97091 0.0679,2.55091 -0.034,1.39898 0.071,6.25684 0.38294,5.52491 0.17604,3.10988 0.17294,1.67694 0.63001,9.3698 0.105,1.08398 -0.13897,1.32796 -0.17603,0.73191 -0.034,0.66398 0.76898,-0.59295 0.63,-0.66397 0.31192,-0.48795 0.315,-0.56206 0.38603,-1.25693 0.34898,-2.09693 0.315,-5.24387 V 100.051 l -0.17603,-4.47491 -0.24397,-4.6849 -0.17603,-3.14694 -0.27795,-3.87887 -0.13897,-1.32794 v -3.39093 l -0.071,-2.72693 -0.105,-3.0049 -0.24397,-13.42469 v -4.12592 l -0.13897,-1.25693 -0.17604,-1.50398 -0.13897,-1.57193 v -1.15502 l -0.14197,-0.8369 -0.13898,-0.42 -0.17293,-0.24398 -0.24707,-0.071 -0.38295,-0.105 h -0.21 z m 0,0"
         id="path41"
         inkscape:connector-curvature="0" />
      <path
         style="fill:#51bd35;fill-opacity:1;fill-rule:nonzero;stroke:#51bd35;stroke-width:0.17635442;stroke-linecap:round;stroke-linejoin:round;stroke-miterlimit:4;stroke-opacity:1"
         d="m 64.93932,43.42147 1.53796,0.80295 1.36501,0.55897 0.83692,0.24707 0.97898,0.0679 0.59603,-0.315 0.0679,-0.66398 -0.27794,-0.76898 0.10499,-0.21 0.87399,1.12104 1.22296,1.67693 2.13089,3.07591 1.15502,1.819 1.6059,2.30692 0.55897,1.50091 0.45706,1.43295 0.17295,1.22296 0.28103,0.105 v 1.47001 l 0.105,1.43296 0.13897,3.77386 -0.24397,7.37787 -0.28103,9.61069 0.38603,5.52491 0.66398,11.08071 0.315,5.45388 0.13898,6.67374 -0.28104,3.49592 -0.87398,2.58797 -0.66398,1.05002 -1.01295,0.83691 -1.43296,0.70104 -1.08398,0.34898 h -1.50398 l -1.18898,-0.525 -1.64296,-1.29399 -1.25693,-1.95797 -0.97898,-2.89987 -0.24397,-3.18092 0.0679,-2.55091 0.071,-3.81093 0.17603,-1.92399 0.27794,-5.34888 0.76898,-6.11477 0.84001,-6.81889 0.45398,-5.03079 0.105,-2.79797 0.034,-1.22296 v -1.15501 l -0.0679,-1.64296 0.34897,2.48297 0.13897,2.37797 0.31501,3.00488 0.24397,2.34091 0.55898,6.15491 0.42,4.96285 0.38604,4.92888 0.17294,1.95796 v 5.03388 l -0.034,2.97091 -0.17604,3.03885 0.315,0.49105 0.34898,0.20999 0.45397,-0.034 0.38604,-0.24706 -0.034,-0.24397 0.24397,-5.10182 -0.071,-3.04194 0.0371,-1.36502 -0.28104,-5.24388 -0.48793,-6.1858 -0.52502,-5.59286 -1.05001,-10.48775 -0.45397,-5.73182 -0.45398,-4.12593 -0.071,-0.31191 -0.13898,-0.0371 0.42001,-4.68182 0.315,0.10192 -0.105,-0.34898 -0.17603,-0.52192 0.0371,-0.84 -0.105,-1.64296 V 53.90912 L 71.23013,52.51013 70.74218,50.83321 70.14924,49.39716 69.17026,47.7542 67.91017,46.07731 66.72119,44.95936 65.91824,44.22435 Z m 0,0"
         id="path43"
         inkscape:connector-curvature="0" />
      <path
         style="fill:#51bd35;fill-opacity:1;fill-rule:nonzero;stroke:#51bd35;stroke-width:0.17635442;stroke-linecap:round;stroke-linejoin:round;stroke-miterlimit:4;stroke-opacity:1"
         d="m 65.30065,111.34483 -0.12353,-4.13519 0.24397,-6.20124 1.70164,-11.18571 1.58119,-10.08937 0.36441,-3.77077 v -3.76769 l 0.24398,-14.46853 -0.72883,-2.79489 -0.60839,-0.9728 -0.76281,-1.17354 -1.03456,-1.21678 -1.5812,-1.21369 0.54663,1.51943 0.60838,1.03148 0.60839,1.15501 v 1.21678 l 0.0618,1.09634 -0.12353,1.15501 -0.24088,0.84927 0.1822,0.60839 0.18221,1.7634 0.0587,2.31003 0.1853,3.82945 0.0587,3.28282 -0.18221,4.19696 v 1.82207 l -0.79059,7.90597 -0.54663,3.64724 -0.30264,3.89122 -0.24398,1.94561 -0.18221,5.04623 -0.12044,4.1352 -0.12353,2.5509 0.12353,2.67753 0.18221,1.5781 0.36442,1.34031 z m 0,0"
         id="path45"
         inkscape:connector-curvature="0" />
    </g>
  </g>
</svg>
